<?xml version="1.0" encoding="UTF-8"?>
<svg width="41px" height="40px" viewBox="0 0 41 40" version="1.1" xmlns="http://www.w3.org/2000/svg" xmlns:xlink="http://www.w3.org/1999/xlink">
    <title>noun_hello_1356002</title>
    <g id="Page-1" stroke="none" stroke-width="1" fill="none" fill-rule="evenodd">
        <g id="login" transform="translate(-191.000000, -266.000000)" fill-rule="nonzero">
            <g id="Rectangle-2" transform="translate(152.000000, 225.000000)">
                <g id="Group" transform="translate(24.000000, 25.000000)">
                    <g id="noun_hello_1356002" transform="translate(15.600000, 16.800000)">
                        <path d="M35.475,24.2098487 C35.47842,25.3560755 34.9652048,26.456029 34.0494142,27.2652127 C33.8419031,27.4450628 33.5636771,27.5463961 33.2734718,27.5478261 C32.8295429,27.5491501 32.4286586,27.3126895 32.2585713,26.9491839 C32.088484,26.5856783 32.1828721,26.1671043 32.4975293,25.8894991 C33.5389379,24.9600116 33.5389379,23.4596859 32.4975293,22.5301984 C32.0689882,22.1503056 32.0689882,21.5343776 32.4975294,21.1544848 C32.9260705,20.774592 33.620873,20.774592 34.0494142,21.1544848 C34.9652048,21.9636685 35.47842,23.063622 35.475,24.2098487 L35.475,24.2098487 Z" id="Path" fill="#FFFFFF"></path>
                        <polygon id="Path" fill="#000000" points="16.5 15.8608696 16.5 15.8608696 13.2 12.5217391 13.2470681 12.5640736"></polygon>
                        <path d="M36.1184176,15.5731441 C35.9377337,15.3581021 35.7464214,15.1538122 35.5497949,14.9602745 L29.5075149,8.84770639 C28.4022272,7.72933451 26.6987312,7.485966 25.3305297,8.25096491 L20.7602915,3.62218645 C19.2765512,2.13173495 16.8819733,2.13173495 15.398233,3.62218645 C14.9320038,4.0899484 14.5964728,4.67422033 14.4257288,5.31564199 C12.8727699,3.99218025 10.5645745,4.14242953 9.1920866,5.65631981 C7.81959869,7.1702101 7.87077508,9.50951214 9.30812485,10.9604938 L9.5260083,11.1809118 C8.23220635,11.5518614 7.22913859,12.5878768 6.88938031,13.9041446 C6.54962202,15.2204125 6.92393372,16.6202801 7.87328263,17.5837865 L8.53224721,18.2504166 C7.90579019,18.4236655 7.33566331,18.7611901 6.87952153,19.2288576 C5.40682616,20.7280188 5.40682616,23.1487542 6.87952153,24.6479153 L16.4451364,34.3248041 C18.9956533,36.9183544 22.4582286,38.3836765 26.074522,38.3999252 L26.1489212,38.3999252 C29.7192078,38.4119245 33.1460944,36.979543 35.666708,34.421573 C40.7313869,29.2527982 40.9295485,20.9841348 36.1184176,15.5731441 Z M34.2743796,33.0184241 C32.1048738,35.2290315 29.1429501,36.4566741 26.0638935,36.4214633 C22.9581884,36.4139576 19.9830587,35.1566761 17.7949509,32.9270313 L8.22933607,23.2501425 C7.88334288,22.8997122 7.69174029,22.4228869 7.69776837,21.9276344 C7.69211029,21.4308696 7.88354911,20.9525151 8.22933607,20.5997502 C8.96564672,19.8999283 10.112941,19.8999283 10.8492517,20.5997502 L17.5398678,27.3574442 C17.9223727,27.7041292 18.5060223,27.6879367 18.8691698,27.3205648 C19.2323173,26.953193 19.2483235,26.362754 18.9056251,25.9757995 L12.2415801,19.2288576 L9.24435409,16.1967658 C8.52204541,15.4643941 8.52204541,14.2787452 9.24435409,13.5463735 C9.97854898,12.8411682 11.1300748,12.8411682 11.8642697,13.5463735 L20.0747558,21.8523697 C20.4533667,22.2339003 21.0660267,22.2326968 21.4431701,21.8496816 C21.8203135,21.4666664 21.8191239,20.8468796 21.440513,20.465349 L10.6738821,9.57347305 C9.95736418,8.83868838 9.95736418,7.6578654 10.6738821,6.92308073 C11.4109201,6.21988514 12.5620739,6.21988514 13.2991119,6.92308073 L15.4248041,9.07350046 L17.8693501,11.5464831 L22.6521576,16.3849275 C23.0307685,16.7679427 23.6446181,16.7679427 24.023229,16.3849275 C24.4018399,16.0019123 24.4018399,15.380922 24.023229,14.9979068 L19.2404216,10.1594624 L16.7693044,7.65959949 C16.0469958,6.92722774 16.0469958,5.74157893 16.7693044,5.00920718 C17.5034993,4.3040019 18.6550252,4.3040019 19.3892201,5.00920718 L23.9594583,9.63798564 C23.2051006,11.0224465 23.4455045,12.7445684 24.5493378,13.8635604 L27.0576546,16.4010557 C25.4802509,18.4411813 25.5290032,21.319642 27.1745677,23.303903 C27.1930783,23.3280167 27.214502,23.3496897 27.2383385,23.3684156 C27.5884363,23.732045 28.1567758,23.7602059 28.5403249,23.4329282 C28.7382053,23.266478 28.8623534,23.0271116 28.885293,22.7678047 C28.9082326,22.5084978 28.828072,22.2506342 28.6625522,22.0512835 C27.4932799,20.6411668 27.5904069,18.5590556 28.8857499,17.2665996 C28.918466,17.2297751 28.9540046,17.1956207 28.9920345,17.1644547 C29.2156971,16.9928162 29.3551299,16.7317736 29.3744799,16.4484501 C29.3938299,16.1651267 29.2912091,15.8871658 29.0930049,15.6860411 L25.9044666,12.4604115 C25.4656288,11.8189622 25.5435087,10.9517233 26.0894263,10.4007764 C26.6353438,9.8498296 27.4927945,9.77312117 28.1258149,10.218599 L34.1521523,16.3419191 C34.3168934,16.5085767 34.4710061,16.6752342 34.630433,16.8795241 C38.7525568,21.5066892 38.5964645,28.581913 34.2743796,33.0184241 Z" id="Shape" fill="#FFFFFF"></path>
                        <path d="M35.475,24.2098487 C35.47842,25.3560755 34.9652048,26.456029 34.0494142,27.2652127 C33.8419031,27.4450628 33.5636771,27.5463961 33.2734718,27.5478261 C32.8295429,27.5491501 32.4286586,27.3126895 32.2585713,26.9491839 C32.088484,26.5856783 32.1828721,26.1671043 32.4975293,25.8894991 C33.5389379,24.9600116 33.5389379,23.4596859 32.4975293,22.5301984 C32.0689882,22.1503056 32.0689882,21.5343776 32.4975294,21.1544848 C32.9260705,20.774592 33.620873,20.774592 34.0494142,21.1544848 C34.9652048,21.9636685 35.47842,23.063622 35.475,24.2098487 L35.475,24.2098487 Z" id="Path" fill="#FFFFFF"></path>
                        <path d="M31.2623048,8.34782609 C31.0215657,8.34782609 30.7906867,8.25099647 30.6204584,8.07866338 C30.4502302,7.90633029 30.354597,7.67259646 30.354597,7.42888066 C30.3518543,6.18913817 29.3598019,5.18481916 28.1352015,5.18204257 C27.6325111,5.18204257 27.225,4.76949264 27.225,4.2605865 C27.225,3.75168037 27.6325111,3.33913043 28.1352015,3.33913043 C30.3651814,3.34191239 32.172252,5.17132731 32.175,7.42888066 C32.175,7.67347379 32.0786861,7.90797606 31.9073777,8.08045503 C31.7360692,8.252934 31.5039068,8.34915611 31.2623048,8.34782609 Z" id="Path" fill="#3EA4F4"></path>
                        <path d="M34.5053318,8.34758822 C33.9813156,8.34758822 33.5565166,7.91653857 33.5565166,7.38481188 C33.5536394,4.37181235 31.1457314,1.93084123 28.1764218,1.93084265 C27.8365115,1.93084266 27.5224215,1.7468344 27.3524664,1.44813199 C27.1825112,1.14942959 27.1825112,0.781413055 27.3524664,0.482710654 C27.5224215,0.184008252 27.8365115,0 28.1764218,0 C32.2073152,0 35.475,3.31576652 35.475,7.4059718 C35.4695298,7.66133622 35.3642803,7.90402908 35.1824188,8.08062948 C35.0005572,8.25722989 34.7569905,8.35326227 34.5053318,8.34758822 L34.5053318,8.34758822 Z" id="Path" fill="#3EA4F4"></path>
                        <path d="M7.33979849,32.5565217 C5.10981863,32.5537412 3.30274798,30.7252428 3.3,28.4688205 C3.3,27.9601693 3.7075111,27.5478261 4.21020151,27.5478261 C4.71289193,27.5478261 5.12040302,27.9601693 5.12040302,28.4688205 C5.1231457,29.7079419 6.11519807,30.7117577 7.33979849,30.7145329 C7.8424889,30.7145329 8.25,31.1268762 8.25,31.6355273 C8.25,32.1441785 7.8424889,32.5565217 7.33979849,32.5565217 L7.33979849,32.5565217 Z" id="Path" fill="#3EA4F4"></path>
                        <path d="M7.2985782,35.8956522 C3.26768476,35.8956522 0,32.5892202 0,28.5105296 C0,27.9788431 0.42596605,27.5478261 0.951421801,27.5478261 C1.47687755,27.5478261 1.9028436,27.9788431 1.9028436,28.5105296 C1.89867382,29.9598255 2.46581225,31.3509784 3.47861408,32.3757897 C4.49141592,33.400601 5.86626618,33.9744644 7.2985782,33.9702452 C7.82403395,33.9702452 8.25,34.4012622 8.25,34.9329487 C8.25,35.4646351 7.82403395,35.8956522 7.2985782,35.8956522 L7.2985782,35.8956522 Z" id="Path" fill="#3EA4F4"></path>
                    </g>
                </g>
            </g>
        </g>
    </g>
</svg>