<?xml version="1.0" encoding="UTF-8"?>
<svg width="120px" height="36px" viewBox="0 0 120 36" version="1.1" xmlns="http://www.w3.org/2000/svg" xmlns:xlink="http://www.w3.org/1999/xlink">
    <title>bfast (Stroke)</title>
    <g id="Page-1" stroke="none" stroke-width="1" fill="none" fill-rule="evenodd">
        <g id="dashboard" transform="translate(-20.000000, -22.000000)" fill="#000000">
            <g id="bfast-(Stroke)" transform="translate(20.000000, 22.000000)">
                <path d="M0.234482926,2.0378491 L0.23567614,2.03503014 C0.407409029,1.62933829 0.629005543,1.27664345 0.902222716,0.980270049 L0.902600252,0.97986267 C1.19526304,0.663806816 1.53824,0.424959381 1.92989434,0.265525744 C2.32144932,0.0879720311 2.74103887,0 3.18583643,0 C3.64576028,0 4.06678794,0.0869319568 4.44400151,0.266436061 C4.83360919,0.425452259 5.16738123,0.663706229 5.44238673,0.979958228 C5.73475394,1.27766442 5.957724,1.63303488 6.11211654,2.04259432 C6.26834708,2.43877814 6.3447237,2.87043916 6.3447237,3.33459999 L6.3447237,11.3933906 C7.27664264,10.82482 8.26521689,10.3776836 9.30997452,10.0521071 C10.5206992,9.66223011 11.7854463,9.46766882 13.103123,9.46766882 C14.9138574,9.46766882 16.6095922,9.81959919 18.1875208,10.5252202 C19.778067,11.2102962 21.1608936,12.155592 22.3336659,13.3611327 C23.5245202,14.5485928 24.4582523,15.9487954 25.1349864,17.5593515 C25.8316902,19.17461 26.1794211,20.9003136 26.1794211,22.7337715 C26.1794211,24.5494003 25.8314418,26.2659002 25.1349864,27.8808318 C24.458302,29.4914885 23.524694,30.9004673 22.3342868,32.1057565 C21.1614897,33.3115487 19.7786631,34.2658722 18.1881417,34.96923 L18.186875,34.9699844 C16.609021,35.6572482 14.9135594,36 13.103123,36 C11.3102968,36 9.61523261,35.6569968 8.02031495,34.9702359 L8.01810437,34.96923 C6.42758302,34.2658722 5.03608796,33.3115487 3.84563106,32.1065109 C2.65517416,30.9012217 1.71259727,29.4922429 1.017883,27.8820891 L1.01691928,27.8798259 C0.338632815,26.2651457 0,24.5488974 0,22.7337715 L0,3.33459999 C0,2.8697099 0.0766264883,2.43739758 0.233358265,2.04069573 L0.234482926,2.0378491 Z M22.1580369,31.9287226 C23.3258416,30.746317 24.2421127,29.3639939 24.9069742,27.7815017 C25.5895204,26.1990095 25.9310419,24.5163573 25.9310419,22.7337715 C25.9310419,20.9330046 25.5895204,19.241375 24.9069742,17.6588828 C24.2421127,16.0763906 23.3258416,14.70307 22.1580369,13.5389462 C21.0082149,12.3566161 19.6517661,11.4289482 18.0887155,10.7559427 C16.5436227,10.0647308 14.8817668,9.71913746 13.103123,9.71913746 C11.8095639,9.71913746 10.5699031,9.9101279 9.38414056,10.2921088 C8.31022321,10.6266627 7.29708425,11.0919551 6.3447237,11.6879861 C6.26146698,11.7401155 6.17868217,11.7932006 6.09634445,11.8473166 L6.09634445,3.33459999 C6.09634445,2.89805042 6.02448834,2.49788082 5.88075127,2.13408867 C5.7370142,1.7521078 5.53041234,1.42469562 5.26092085,1.15185214 C5.00938719,0.860817413 4.70398007,0.642542627 4.34464981,0.497025266 C4.00330221,0.333321691 3.6170228,0.251468647 3.18583643,0.251468647 C2.77260787,0.251468647 2.38634585,0.333321691 2.02702304,0.497025266 C1.66770024,0.642542627 1.35329433,0.860817413 1.08380285,1.15185214 C0.832276636,1.42469562 0.625667326,1.7521078 0.463972435,2.13408867 C0.320242816,2.49788082 0.248379248,2.89805042 0.248379248,3.33459999 L0.248379248,22.7337715 C0.248379248,24.5163573 0.580752906,26.1990095 1.24549774,27.7815017 C1.92821033,29.3639939 2.85345532,30.746317 4.02126003,31.9287226 C5.18906474,33.1108767 6.55447998,34.0475974 8.11753058,34.7388847 C9.68058119,35.4118148 11.3424371,35.7485314 13.103123,35.7485314 C14.8817668,35.7485314 16.5436227,35.4118148 18.0887155,34.7388847 C19.6517661,34.0475974 21.0082149,33.1108767 22.1580369,31.9287226 Z M19.3154358,20.0765275 L19.3146906,20.0747672 C18.967829,19.2319449 18.4834895,18.505804 17.861672,17.8937545 L17.8591634,17.8912901 C17.2535651,17.2781592 16.5438214,16.7957921 15.7277217,16.4442138 L15.725685,16.4433336 L15.7236731,16.4424032 C14.9126901,16.0755607 14.0401338,15.8913097 13.103123,15.8913097 C12.1661123,15.8913097 11.293556,16.0755607 10.4825729,16.4424032 L10.4805611,16.4433336 L10.4785244,16.4442138 C9.66235016,16.7958172 8.94301902,17.278461 8.31889164,17.8925223 C7.71408817,18.5051502 7.22870545,19.2326742 6.86338925,20.0776591 C6.51821661,20.8993581 6.3447237,21.7838487 6.3447237,22.7337715 C6.3447237,23.6641804 6.51774469,24.5488471 6.86338925,25.3897834 C7.22845707,26.2161094 7.71398882,26.9443626 8.3201087,27.5763033 C8.94436026,28.1901382 9.66398946,28.6817594 10.4805362,29.0514184 C11.2918671,29.4007083 12.1652182,29.5762334 13.103123,29.5762334 C14.0410279,29.5762334 14.9143542,29.4007083 15.7257098,29.0514184 C16.5427037,28.6817594 17.2531677,28.1898868 17.8591882,27.5763033 C18.4831914,26.944614 18.9682016,26.2168638 19.315088,25.3917951 C19.661279,24.5502805 19.8345732,23.6649348 19.8345732,22.7337715 C19.8345732,21.7833961 19.6609065,20.8985282 19.3154358,20.0765275 Z M19.5439695,25.4896164 C19.1846393,26.3443584 18.6815968,27.0992672 18.0348172,27.7540916 C17.4059955,28.3908102 16.669402,28.9000342 15.824987,29.2820151 C14.9805721,29.6458902 14.0732924,29.8277021 13.103123,29.8277021 C12.1329537,29.8277021 11.225674,29.6458902 10.3812591,29.2820151 C9.53684412,28.9000342 8.7912593,28.3908102 8.14447973,27.7540916 C7.51565799,27.0992672 7.0126155,26.3443584 6.63532742,25.4896164 C6.27599716,24.6163916 6.09634445,23.6978269 6.09634445,22.7337715 C6.09634445,21.751535 6.27599716,20.8329703 6.63532742,19.9780524 C7.0126155,19.1049532 7.51565799,18.3500947 8.14447973,17.7134515 C8.7912593,17.0768083 9.53684412,16.576612 10.3812591,16.2128123 C11.225674,15.8308315 12.1329537,15.639841 13.103123,15.639841 C14.0732924,15.639841 14.9805721,15.8308315 15.824987,16.2128123 C16.669402,16.576612 17.4059955,17.0768083 18.0348172,17.7134515 C18.6815968,18.3500947 19.1846393,19.1049532 19.5439695,19.9780524 C19.9032998,20.8329703 20.0829525,21.751535 20.0829525,22.7337715 C20.0829525,23.6978269 19.9032998,24.6163916 19.5439695,25.4896164 Z M32.0200591,5.63946102 L32.0210527,5.63749956 C32.4817962,4.53667042 33.1096989,3.58189426 33.905506,2.7759121 C34.6995745,1.95341851 35.6230485,1.29929323 36.6739411,0.813921025 L36.6754314,0.813239545 C37.7484297,0.326340922 38.8944516,0.0647353223 40.1112615,0.0273977605 L40.1149872,0.0272823364 L40.1505054,0.0272823364 C40.1999329,0.00988550912 40.2523409,0 40.3074811,0 C41.2135686,0 41.9790735,0.314763305 42.5851188,0.946736705 C43.2092959,1.5603705 43.5202667,2.33532394 43.5202667,3.25274695 C43.5202667,3.7038817 43.4330856,4.12941694 43.2569847,4.52646079 C43.0997606,4.903362 42.8734871,5.23195608 42.5789094,5.51020613 C42.2883056,5.78491048 41.9505099,6.00896905 41.5682542,6.18321167 L41.5632866,6.18539945 L41.5585674,6.18738605 C41.1678668,6.34555983 40.750093,6.42364085 40.3074811,6.42364085 L40.1785723,6.42364085 C39.8209062,6.44086645 39.490065,6.53142031 39.183565,6.69482464 L39.1810812,6.69605683 L39.1788458,6.69721359 C38.8837713,6.84661111 38.620986,7.04552281 38.3899933,7.29533176 C38.1781258,7.5436822 38.0050055,7.83518465 37.8713775,8.17217779 C37.7573714,8.48676507 37.6992506,8.82891331 37.6992506,9.20073485 L37.6992506,12.4416628 L39.418035,12.4416628 C39.8628823,12.4416628 40.2826432,12.5296516 40.6740889,12.7072137 C41.0608154,12.8645827 41.3936436,13.0914577 41.6688478,13.3883165 C41.9621837,13.6671449 42.1862218,14.0040878 42.3417072,14.3955742 C42.5163178,14.7904554 42.6039957,15.2059822 42.6039957,15.639841 C42.6039957,16.0901711 42.5170629,16.5149771 42.3417072,16.9113922 C42.185725,17.3042617 41.9611902,17.6497796 41.6688478,17.9458337 C41.393892,18.2242346 41.0628024,18.4500031 40.6788081,18.6248744 L40.6740889,18.6270622 L40.6691213,18.6290488 C40.2786691,18.7872226 39.8608952,18.8653036 39.418035,18.8653036 L37.6992506,18.8653036 L37.6992506,32.4198409 C37.6992506,32.8699698 37.6123179,33.2949518 37.4369622,33.6912664 C37.28098,34.0840604 37.0564452,34.4295783 36.7641028,34.7258084 C36.4725055,35.0207811 36.1329711,35.2561557 35.7472381,35.4319323 L35.744506,35.4331897 L35.7415254,35.434447 C35.3677146,35.5938781 34.9663338,35.6725878 34.5403634,35.6725878 C34.0977516,35.6725878 33.6799777,35.5943811 33.2892771,35.4362073 L33.2820741,35.4331897 L33.2751195,35.4299206 C32.9077666,35.2538925 32.5791608,35.0187693 32.2895506,34.7258084 C31.9982018,34.4305842 31.7654704,34.0868265 31.5918533,33.6960443 L31.5898663,33.6912664 L31.5878793,33.686237 C31.4316487,33.2909283 31.3544028,32.867958 31.3544028,32.4198409 L31.3544028,18.8653036 L30.2284996,18.8653036 C29.7858878,18.8653036 29.3681139,18.7872226 28.9774134,18.6290488 L28.9702104,18.6261569 L28.9632557,18.6228124 C28.5959028,18.4466586 28.2672971,18.2115857 27.9776869,17.9185493 C27.686338,17.6234257 27.4536067,17.2795926 27.2799896,16.8889864 L27.2780025,16.884133 L27.2760155,16.8791791 C27.1202817,16.4850523 27.042539,16.0713109 27.042539,15.639841 C27.042539,15.2083711 27.1202817,14.7946297 27.2760155,14.4005029 L27.2780025,14.395549 L27.2799896,14.3906957 C27.453855,13.9999637 27.6870832,13.6637249 27.9809158,13.385324 C28.2707744,13.0923882 28.6011188,12.8660161 28.9704587,12.7081189 C29.3626496,12.5299534 29.7829073,12.4416628 30.2284996,12.4416628 L31.3544028,12.4416628 L31.3544028,9.1188818 C31.3544028,7.88711293 31.575957,6.72650969 32.0200591,5.63946102 Z M31.602782,9.1188818 C31.602782,7.91837048 31.8183752,6.79060904 32.2495616,5.73562263 C32.6988796,4.66242989 33.3096442,3.73476205 34.0821037,2.95261912 C34.8548115,2.1522774 35.7529509,1.51564177 36.7770185,1.04271223 C37.8192178,0.569785204 38.9329504,0.315132964 40.1187129,0.27875048 L40.1996845,0.27875048 C40.2356995,0.260561753 40.2714661,0.251468647 40.3074811,0.251468647 C41.1519706,0.251468647 41.8526484,0.542500856 42.4095147,1.12456527 C42.9845127,1.68844348 43.2718875,2.39783653 43.2718875,3.25274695 C43.2718875,3.67111533 43.1909158,4.06217423 43.0292209,4.42597392 C42.8856577,4.77156728 42.6790062,5.07169511 42.4095147,5.32635741 C42.1400232,5.58101971 41.8255751,5.79019133 41.4661703,5.95389741 C41.1070139,6.09942232 40.7207842,6.1721722 40.3074811,6.1721722 L40.1726112,6.1721722 C39.7774398,6.19035338 39.4090934,6.29041276 39.0678203,6.47230003 C38.7444305,6.63600612 38.4570557,6.8542809 38.2054476,7.12712439 C37.9719711,7.39996787 37.7832028,7.71827688 37.6393912,8.08207657 C37.5137114,8.42766993 37.4508714,8.80057279 37.4508714,9.20073485 L37.4508714,12.6931314 L39.418035,12.6931314 C39.8313381,12.6931314 40.2175678,12.7749845 40.5769726,12.9386905 C40.9363774,13.0842155 41.2416355,13.2933871 41.4932437,13.5662306 C41.7627351,13.8208929 41.9693867,14.1300987 42.1129499,14.4938984 C42.2746448,14.8576981 42.3556164,15.239679 42.3556164,15.639841 C42.3556164,16.0582094 42.2746448,16.4492683 42.1129499,16.813068 C41.9693867,17.1768677 41.7627351,17.4951767 41.4932437,17.7680202 C41.2416355,18.0226825 40.9363774,18.2318541 40.5769726,18.3955602 C40.2175678,18.5410851 39.8313381,18.613835 39.418035,18.613835 L37.4508714,18.613835 L37.4508714,25.5167751 L37.4508714,32.4198409 C37.4508714,32.8380332 37.3698998,33.229067 37.2082049,33.5929421 C37.0646417,33.9568172 36.8579901,34.2749251 36.5884987,34.54802 C36.3190072,34.8208635 36.004559,35.0391383 35.6451543,35.2028444 C35.3038812,35.3481933 34.9355348,35.4211192 34.5403634,35.4211192 C34.1270603,35.4211192 33.7408306,35.3481933 33.3814258,35.2028444 C33.0401527,35.0391383 32.7346462,34.8208635 32.4651548,34.54802 C32.1956633,34.2749251 31.9800701,33.9568172 31.8183752,33.5929421 C31.674812,33.229067 31.602782,32.8380332 31.602782,32.4198409 L31.602782,18.613835 L30.2284996,18.613835 C29.8151966,18.613835 29.4289668,18.5410851 29.0695621,18.3955602 C28.728289,18.2318541 28.4227825,18.0135793 28.153291,17.7407358 C27.8837995,17.4678923 27.6682063,17.1495833 27.5065114,16.7857836 C27.3629482,16.4219839 27.2909183,16.0400031 27.2909183,15.639841 C27.2909183,15.239679 27.3629482,14.8576981 27.5065114,14.4938984 C27.6682063,14.1300987 27.8837995,13.8208929 28.153291,13.5662306 C28.4227825,13.2933871 28.728289,13.0842155 29.0695621,12.9386905 C29.4289668,12.7749845 29.8151966,12.6931314 30.2284996,12.6931314 L31.602782,12.6931314 L31.602782,9.1188818 Z M52.7979768,34.9702359 L52.7947478,34.9689785 C51.2222588,34.2653693 49.8402767,33.3112972 48.6502917,32.1065109 C47.45981,30.9012217 46.5172107,29.4922429 45.822494,27.8820891 C45.1257902,26.2666546 44.7778108,24.549853 44.7778108,22.7337715 C44.7778108,20.9000119 45.1255418,19.1827576 45.8227423,17.5848253 C46.5174591,15.9747973 47.4600583,14.5662208 48.6502917,13.3611327 C49.8405251,12.1559692 51.2232523,11.2104974 52.7964865,10.5251448 C54.3918264,9.81985066 56.0872631,9.46766882 57.8808097,9.46766882 C59.6914944,9.46766882 61.3871795,9.81957404 62.9651329,10.5251699 C64.556002,11.2103968 65.939226,12.1559189 67.1120728,13.3618368 C68.3023062,14.5670758 69.2357154,15.9758786 69.9125488,17.5862083 C70.609501,19.1837384 70.9569836,20.9005148 70.9569836,22.7337715 L70.9569836,32.3924308 C70.9569836,32.8428111 70.8700508,33.2675417 70.6946951,33.6638563 C70.5387129,34.0569018 70.3144265,34.4024197 70.0218357,34.6983983 C69.7289966,34.9951313 69.3792786,35.2305059 68.9761591,35.4055281 C68.5837199,35.5840709 68.1632138,35.6725878 67.7173731,35.6725878 C66.9637904,35.6725878 66.3120433,35.4460146 65.7775311,34.9848211 C65.3443577,34.6111387 65.0296612,34.1554775 64.8351803,33.6221125 C63.8707236,34.319938 62.830263,34.8799586 61.714295,35.3016716 C60.4997205,35.7673915 59.2213125,36 57.8808097,36 C56.0880083,36 54.3928199,35.6569968 52.7979768,34.9702359 Z M61.6268655,35.0662969 C62.7470559,34.6430752 63.7895036,34.0780251 64.7542086,33.3713982 C64.8259902,33.3185898 64.8975234,33.2652785 64.9685599,33.2109612 C64.9906657,33.2984723 65.0160003,33.3842231 65.0443156,33.4674593 C65.2221551,33.9907655 65.5202102,34.4325959 65.9387293,34.7934534 C66.4238139,35.2118973 67.0166952,35.4211192 67.7173731,35.4211192 C68.1304277,35.4211192 68.5166575,35.3391404 68.8760622,35.1754343 C69.2533503,35.0117282 69.5767401,34.7934534 69.8462316,34.52061 C70.1157231,34.2477665 70.3223746,33.9294072 70.4661862,33.5657835 C70.6278811,33.2019084 70.7086043,32.8108746 70.7086043,32.3924308 L70.7086043,22.7337715 C70.7086043,20.9330046 70.3673312,19.2504781 69.6845367,17.6861671 C69.0198738,16.1036749 68.1036028,14.7212763 66.9357236,13.5389462 C65.785976,12.3566161 64.4295769,11.4289482 62.8665263,10.7559427 C61.321359,10.0647308 59.6594535,9.71913746 57.8808097,9.71913746 C56.1200492,9.71913746 54.458392,10.0647308 52.8953414,10.7559427 C51.3501741,11.4289482 49.993775,12.3566161 48.8258958,13.5389462 C47.6580166,14.7212763 46.7328039,16.1036749 46.0502577,17.6861671 C45.3674632,19.2504781 45.0261901,20.9330046 45.0261901,22.7337715 C45.0261901,24.5163573 45.3674632,26.1990095 46.0502577,27.7815017 C46.7328039,29.3639939 47.6580166,30.746317 48.8258958,31.9287226 C49.993775,33.1108767 51.3501741,34.0475974 52.8953414,34.7388847 C54.458392,35.4118148 56.1200492,35.7485314 57.8808097,35.7485314 C59.1922521,35.7485314 60.441103,35.5209522 61.6268655,35.0662969 Z M64.0930231,20.0765275 L64.0922779,20.0747672 C63.7447954,19.2304361 63.2686523,18.5035157 62.6638489,17.891265 C62.0590454,17.2790142 61.3412294,16.7967477 60.5071719,16.444943 L60.5041913,16.4437108 L60.5014591,16.4424032 C59.6905009,16.0755607 58.8176962,15.8913097 57.8808097,15.8913097 C56.9625516,15.8913097 56.0890018,16.0752841 55.2584216,16.4432079 L55.2561862,16.4442138 C54.440012,16.7958424 53.7207057,17.2784862 53.0965286,17.8925474 C52.4917251,18.5051754 52.0063921,19.2326742 51.6410262,20.0776591 C51.2960274,20.8993581 51.1224104,21.7838487 51.1224104,22.7337715 C51.1224104,23.6642055 51.2955307,24.5488722 51.6410262,25.3897834 C52.0061437,26.2161094 52.4917251,26.9443626 53.0977705,27.5763033 C53.7219476,28.1901382 54.4417506,28.6817594 55.2581732,29.0514184 C56.0696282,29.4007083 56.9429296,29.5762334 57.8808097,29.5762334 C58.8189381,29.5762334 59.6924879,29.4007083 60.5041913,29.0511669 C61.3387456,28.6812565 62.0575551,28.1898868 62.662607,27.5775606 C63.2689007,26.9458714 63.7455405,26.2178696 64.0927747,25.3920466 C64.4390154,24.5504313 64.6123841,23.6650102 64.6123841,22.7337715 C64.6123841,21.7833961 64.4385186,20.8985282 64.0930231,20.0765275 Z M64.3217804,25.4896164 C63.9623756,26.3443584 63.4683493,27.0992672 62.839453,27.7540916 C62.2105567,28.3908102 61.4651706,28.9000342 60.6027979,29.2820151 C59.7583084,29.6458902 58.850979,29.8277021 57.8808097,29.8277021 C56.9106403,29.8277021 56.003311,29.6458902 55.1590699,29.2820151 C54.3145804,28.9000342 53.5689459,28.3908102 52.9221664,27.7540916 C52.2932701,27.0992672 51.7903021,26.3443584 51.4130141,25.4896164 C51.0536093,24.6163916 50.8740311,23.6978269 50.8740311,22.7337715 C50.8740311,21.751535 51.0536093,20.8329703 51.4130141,19.9780524 C51.7903021,19.1049532 52.2932701,18.3500947 52.9221664,17.7134515 C53.5689459,17.0768083 54.3145804,16.576612 55.1590699,16.2128123 C56.0214426,15.8308315 56.9285237,15.639841 57.8808097,15.639841 C58.850979,15.639841 59.7583084,15.8308315 60.6027979,16.2128123 C61.4651706,16.576612 62.2105567,17.0768083 62.839453,17.7134515 C63.4683493,18.3500947 63.9623756,19.1049532 64.3217804,19.9780524 C64.6809367,20.8329703 64.8607633,21.751535 64.8607633,22.7337715 C64.8607633,23.6978269 64.6809367,24.6163916 64.3217804,25.4896164 Z M81.906286,24.9884143 L81.8975927,24.984768 C81.1224011,24.6562493 80.3206329,24.3004715 79.4920397,23.9174848 L79.4898043,23.9165543 L79.4878172,23.9155736 C78.6443213,23.5071382 77.8728554,23.0145111 77.1744129,22.4375163 L77.1729226,22.436259 L77.1714324,22.4350016 C76.4657869,21.8334132 75.8811022,21.1189908 75.4176265,20.2932683 L75.416633,20.2913823 L75.4153911,20.2894711 C74.9606087,19.444964 74.7383093,18.4467592 74.7383093,17.3041863 C74.7383093,16.124396 74.9697987,15.0493423 75.4372485,14.0838033 C75.9017177,13.1058418 76.543778,12.2764982 77.362436,11.5983124 C78.197487,10.9032279 79.1783367,10.3795696 80.3010109,10.0252754 C81.4246786,9.65254856 82.6541559,9.46766882 83.9877041,9.46766882 C84.7554443,9.46766882 85.5487676,9.53234655 86.3679224,9.66122423 C87.191548,9.7725997 87.9714588,9.96741246 88.7069098,10.2463415 C89.4637214,10.508397 90.1412999,10.8649544 90.7374101,11.3171704 C91.3412201,11.7569891 91.8074279,12.2956098 92.1315629,12.9326553 L92.1337983,12.9368297 L92.1357853,12.9411046 C92.4236569,13.5631626 92.5235053,14.1946507 92.4261406,14.8296342 C92.3486463,15.4335361 92.134295,15.9457275 91.7734,16.3523271 C91.3826994,16.8065047 90.9010921,17.115107 90.3330487,17.2737585 C89.7530832,17.4357547 89.1728693,17.3833234 88.6023421,17.1243862 L88.587191,17.1175462 L88.5732818,17.1087448 C88.1984775,16.8739485 87.85174,16.666839 87.5323243,16.4872149 L87.5295922,16.4857061 L87.52686,16.4841219 C87.2345176,16.3100301 86.9247887,16.1617893 86.5969281,16.0395001 L86.5946927,16.0387206 L86.5927056,16.0379159 C86.2886894,15.9181917 85.9568548,15.8317619 85.5964565,15.7796324 L85.5897502,15.7786517 L85.583044,15.7772938 C85.2432612,15.7085171 84.8470963,15.6730349 84.3920655,15.6730349 C83.2403309,15.6730349 82.3985736,15.8356597 81.8402171,16.1349325 L81.8377333,16.1362401 C81.5737062,16.2740198 81.3884152,16.4432833 81.2679513,16.6390265 C81.1477358,16.8343674 81.0831571,17.0709742 81.0831571,17.358755 C81.0831571,17.6425373 81.1683512,17.8689848 81.3340202,18.0540658 C81.5434039,18.2478475 81.8230789,18.4322243 82.1792548,18.6041283 C82.5610137,18.7797288 83.0162928,18.9483386 83.5460858,19.1093036 C84.1039456,19.2732863 84.7065136,19.4554251 85.3537899,19.6556696 C86.4230626,19.9859736 87.4391821,20.3716008 88.4014033,20.8127271 C89.3904495,21.2578518 90.255306,21.8066318 90.9939859,22.4605006 C91.7552683,23.1001362 92.359575,23.8629412 92.8059125,24.7475828 C93.2582111,25.6447726 93.4797654,26.6949057 93.4797654,27.8906391 C93.4797654,29.0194818 93.237844,30.0849545 92.7540013,31.083788 C92.2897804,32.0612466 91.6397719,32.915737 90.8069563,33.6465049 C89.9728988,34.3782787 88.9756561,34.9569081 87.818954,35.3844048 L87.8167186,35.3851592 C86.6734289,35.7958075 85.4322778,36 84.0955007,36 C83.2537434,36 82.3595781,35.9165124 81.4139983,35.751046 C80.4790988,35.6021766 79.5628278,35.3424095 78.6656819,34.9717447 L78.6629498,34.9704874 L78.6602176,34.96923 C77.778968,34.5789507 76.9615519,34.0860721 76.208466,33.4910973 L76.2069757,33.48984 L76.2054855,33.4888341 C75.4414709,32.8659463 74.8267323,32.1019845 74.3622631,31.1989606 C73.8968004,30.2944279 73.7291444,29.4570373 73.9099645,28.7041402 L73.9104612,28.7018769 L73.9112064,28.6996137 C74.1049422,27.9540092 74.4986233,27.3794033 75.0964721,26.9959136 C75.6933275,26.6131784 76.4091565,26.4806544 77.2253307,26.5767154 C78.0636106,26.6752911 78.8651305,27.0982614 79.629145,27.8151985 L79.6428059,27.8280234 L79.6542313,27.8426086 C79.8549218,28.0965919 80.108517,28.3457973 80.4177491,28.5897219 C80.7272297,28.8155408 81.0722285,29.0252656 81.453739,29.218645 C81.832269,29.3924098 82.2376239,29.5322264 82.6703005,29.6375918 C83.1178799,29.7419513 83.5838394,29.7945082 84.0686757,29.7945082 C84.4993653,29.7945082 84.9012429,29.7510041 85.2750537,29.6655048 C85.6501064,29.5616482 85.977967,29.4245978 86.2603742,29.2563653 C86.5400492,29.0896416 86.7551457,28.893999 86.911873,28.6719522 C87.059907,28.4619758 87.1349175,28.2225777 87.1349175,27.9452078 C87.1349175,27.6648202 86.9943349,27.3854386 86.6386558,27.1073142 L86.6359236,27.105051 L86.6331914,27.1027878 C86.2571453,26.7914696 85.7904407,26.5017777 85.2298487,26.2354724 L85.2271165,26.2342151 C84.6816757,25.9671554 84.1002199,25.7350498 83.4822523,25.5384014 L83.4780299,25.537144 L83.4740558,25.5356352 C82.8640364,25.3176119 82.344427,25.1362778 81.9149792,24.9913816 L81.906286,24.9884143 Z M82.6134217,29.8822708 C82.164352,29.7731334 81.7421073,29.627533 81.3466875,29.4457212 C80.9515161,29.2455521 80.5921114,29.0272774 80.2687216,28.7908968 C79.9453318,28.5361591 79.6758403,28.27262 79.4602471,27.9997765 C78.7238027,27.3084892 77.9692265,26.9174554 77.1965187,26.8264238 C76.4240592,26.7353921 75.768338,26.8628867 75.229355,27.2084046 C74.6903721,27.5539226 74.3309673,28.0724509 74.1513891,28.7637382 C73.9896942,29.4366683 74.1335058,30.2096829 74.5825755,31.0827821 C75.0316451,31.9558812 75.6245264,32.6926844 76.3612193,33.29294 C77.0979121,33.8748385 77.8971965,34.3569039 78.7595693,34.7388847 C79.6400737,35.1027599 80.5382131,35.3572461 81.4544841,35.5028465 C82.3888869,35.6665526 83.2691429,35.7485314 84.0955007,35.7485314 C85.4071915,35.7485314 86.619779,35.5483623 87.7337599,35.1480242 C88.8656241,34.7298319 89.8357935,34.1660392 90.6442679,33.4566461 C91.4527424,32.7472531 92.0816386,31.9194183 92.5307083,30.9736447 C92.9979097,30.0095139 93.2313862,28.982013 93.2313862,27.8906391 C93.2313862,26.7263392 93.015793,25.7169441 92.5846066,24.8619507 C92.1534202,24.0070327 91.5694806,23.2703553 90.8327878,22.6519185 C90.1142266,22.0152753 89.2697372,21.4786915 88.2995678,21.042142 C87.3475302,20.6055924 86.3413458,20.2236115 85.2812632,19.8961993 C84.6344836,19.6961057 84.0326607,19.5142185 83.4757944,19.3505124 C82.9368115,19.1868063 82.4696101,19.013997 82.0744387,18.8321098 C81.6971506,18.6502225 81.3916442,18.4501289 81.1581677,18.2318541 C80.9425745,17.9953981 80.8347779,17.7043483 80.8347779,17.358755 C80.8347779,16.7039306 81.1310943,16.2219155 81.7239756,15.9126845 C82.3349886,15.5852723 83.2241863,15.4215662 84.3920655,15.4215662 C84.8592669,15.4215662 85.2723215,15.4579537 85.6317263,15.5307036 C86.0090144,15.5852723 86.3592291,15.6762285 86.6826189,15.8035471 C87.0241404,15.9308657 87.3475302,16.0854938 87.6527883,16.267381 C87.976178,16.4492683 88.3266412,16.6584651 88.7039292,16.894921 C89.2250289,17.131377 89.7458802,17.1768677 90.2669798,17.0313428 C90.7880795,16.8858179 91.2282075,16.6038964 91.5873639,16.185528 C91.9107537,15.8217283 92.1084636,15.3578944 92.1802452,14.7940262 C92.2701585,14.2119517 92.1802452,13.6299024 91.9107537,13.0478279 C91.6054956,12.4475723 91.1653676,11.9382728 90.5903696,11.5199044 C90.0153717,11.0833549 89.3596505,10.7377615 88.6229576,10.4830992 C87.9043964,10.2102557 87.1408786,10.0192653 86.3324042,9.9101279 C85.5239297,9.78280932 84.7422802,9.71913746 83.9877041,9.71913746 C82.6762616,9.71913746 81.4726158,9.90102473 80.3765182,10.2648244 C79.2806689,10.6104178 78.3283829,11.1197424 77.5199085,11.7927479 C76.7295657,12.4475723 76.1096111,13.2479215 75.6605414,14.1937706 C75.2114717,15.1214384 74.9866885,16.1582436 74.9866885,17.3041863 C74.9866885,18.4137414 75.2022817,19.3686936 75.6334681,20.1690428 C76.0827861,20.9693921 76.6485941,21.6605788 77.3313886,22.2426533 C78.0141832,22.8065214 78.7687593,23.2885617 79.5951171,23.6887237 C80.4214748,24.0707046 81.2210076,24.4254011 81.9934671,24.7528133 C82.4246535,24.8983382 82.9457531,25.0802255 83.5565177,25.2985003 C84.185414,25.4986693 84.7782952,25.7350498 85.3351615,26.0078933 C85.9101595,26.2807368 86.3952441,26.5809904 86.7904155,26.9084025 C87.1858353,27.2174575 87.3832968,27.5632269 87.3832968,27.9452078 C87.3832968,28.27262 87.2936319,28.5635692 87.1138053,28.8183069 C86.9342271,29.0727932 86.6918089,29.291068 86.3863025,29.4731313 C86.080796,29.6549431 85.7305813,29.8005435 85.3351615,29.9096808 C84.9399901,30.000461 84.5177454,30.0459769 84.0686757,30.0459769 C83.5657077,30.0459769 83.0806231,29.9914082 82.6134217,29.8822708 Z M115.089505,15.3023198 L115.086525,15.3052871 C114.795672,15.5799915 114.458125,15.80405 114.075621,15.9782927 L114.070902,15.9804804 L114.065934,15.982467 C113.675482,16.1406408 113.257708,16.2187218 112.814848,16.2187218 L103.685172,16.2187218 L103.685172,22.8701933 C103.685172,23.8005518 103.858044,24.6754113 104.203043,25.4971605 C104.567663,26.3053807 105.052996,27.0155282 105.659042,27.6296146 C106.264342,28.2245894 106.97421,28.6983564 107.790881,29.050161 C108.62171,29.4004568 109.504946,29.5762334 110.443323,29.5762334 C111.282348,29.5762334 112.055304,29.4613122 112.764427,29.2342361 C113.46585,28.9910659 114.119087,28.6002836 114.724139,28.0581172 C114.926817,27.8715275 115.122788,27.710839 115.311805,27.5765547 C115.529633,27.4163692 115.775032,27.2878687 116.046014,27.1900474 C116.533334,27.0125106 117.040276,26.9632227 117.563114,27.0409265 C118.108555,27.1032907 118.612516,27.3592858 119.07326,27.787034 L119.07475,27.7882913 L119.075992,27.7895487 C119.425958,28.1242535 119.673841,28.512521 119.813678,28.953597 C119.969164,29.3697777 120.026539,29.8131169 119.988786,30.2803456 C119.968915,30.7304745 119.862112,31.1697902 119.670612,31.5960296 C119.477373,32.0262924 119.207136,32.4072674 118.861392,32.7379487 C117.759582,33.8159948 116.492103,34.6342738 115.059948,35.1917798 L115.057464,35.1927856 C113.626303,35.731683 112.087594,36 110.443323,36 C108.632887,36 106.929005,35.6572482 105.333665,34.9702359 L105.332672,34.9699844 C103.760182,34.2849838 102.377704,33.3490175 101.187222,32.162337 C99.9964917,30.975405 99.0536441,29.5845319 98.358679,27.9922324 L98.3571887,27.9889633 C97.678865,26.3737802 97.3403241,24.6485796 97.3403241,22.8156246 L97.3403241,5.29907306 C97.3403241,4.85090564 97.4173216,4.42791023 97.5738006,4.03245063 L97.5755392,4.0274967 L97.5777746,4.02264335 C97.7513917,3.63203711 97.9838747,3.28820402 98.2754719,2.99308042 C98.5678143,2.69700124 98.9090874,2.4697289 99.2973042,2.31184431 C99.6887499,2.13428985 100.108262,2.0463236 100.55311,2.0463236 C100.980819,2.0463236 101.383193,2.1346067 101.757501,2.31277223 C102.144475,2.47064173 102.477552,2.69825858 102.752756,2.99604775 C103.043857,3.29144797 103.267398,3.63590972 103.422635,4.02744641 C103.598239,4.42388673 103.685172,4.84871786 103.685172,5.29907306 L103.685172,9.79508099 L112.814848,9.79508099 C113.245289,9.79508099 113.65735,9.8844278 114.048796,10.0627945 C114.434529,10.2385711 114.774312,10.473996 115.065661,10.7691197 C115.357258,11.0642433 115.589741,11.4080763 115.763358,11.7986826 C115.939459,12.1950223 116.027634,12.6121837 116.027634,13.0478279 C116.027634,13.4824663 115.939956,13.8987224 115.7646,14.2942574 C115.608121,14.6695492 115.383338,15.0048575 115.092734,15.2992519 L115.089505,15.3023198 Z M115.536836,14.1937706 C115.698531,13.8299709 115.779254,13.44799 115.779254,13.0478279 C115.779254,12.6476659 115.698531,12.265685 115.536836,11.9018853 C115.375141,11.5380856 115.159548,11.2197766 114.890057,10.9469331 C114.620565,10.6740896 114.306117,10.4558149 113.946961,10.2921088 C113.587556,10.1284027 113.210268,10.0465496 112.814848,10.0465496 L103.436793,10.0465496 L103.436793,5.29907306 C103.436793,4.88070467 103.355821,4.48964578 103.194126,4.12584609 C103.050315,3.7620464 102.843663,3.44373738 102.574172,3.1708939 C102.322812,2.89805042 102.017305,2.6888788 101.657901,2.54335389 C101.316627,2.37964529 100.948281,2.29779224 100.55311,2.29779224 C100.139807,2.29779224 99.7535768,2.37964529 99.3941721,2.54335389 C99.0350157,2.6888788 98.7205676,2.89805042 98.4510761,3.1708939 C98.1815846,3.44373738 97.9659914,3.7620464 97.8042965,4.12584609 C97.6604849,4.48964578 97.5887033,4.88070467 97.5887033,5.29907306 L97.5887033,22.8156246 C97.5887033,24.6163916 97.9210348,26.3081469 98.585946,27.8906391 C99.2684922,29.4547741 100.193705,30.8189915 101.361584,31.9832913 C102.529463,33.1473397 103.885862,34.0659546 105.430781,34.7388847 C106.993832,35.4118148 108.664679,35.7485314 110.443323,35.7485314 C112.06052,35.7485314 113.569424,35.4847407 114.97078,34.9571595 C116.372136,34.4114726 117.611796,33.6110479 118.690011,32.5561369 C119.013152,32.2468304 119.26476,31.8922597 119.444587,31.492173 C119.624165,31.091835 119.72302,30.6826955 119.740903,30.2642516 C119.776918,29.8277021 119.72302,29.4185626 119.579208,29.0365817 C119.453529,28.6362436 119.228745,28.2816728 118.905356,27.9723664 C118.474418,27.5722798 118.016158,27.3449521 117.531073,27.2903834 C117.045988,27.2174575 116.578787,27.2629733 116.129717,27.4266794 C115.878109,27.5177111 115.653574,27.6359013 115.455865,27.7815017 C115.276286,27.9087448 115.087766,28.063398 114.890057,28.2452099 C114.26116,28.8090026 113.578614,29.2183935 112.841921,29.4731313 C112.105228,29.7095118 111.305944,29.8277021 110.443323,29.8277021 C109.473154,29.8277021 108.556883,29.6458902 107.694758,29.2820151 C106.850269,28.91814 106.113576,28.4270217 105.484928,27.8086603 C104.856032,27.1719417 104.352815,26.43539 103.975527,25.5987538 C103.616371,24.7437101 103.436793,23.8342486 103.436793,22.8701933 L103.436793,15.9672532 L112.814848,15.9672532 C113.228151,15.9672532 113.614381,15.8945033 113.973786,15.7489784 C114.33319,15.5852723 114.64739,15.3761007 114.916882,15.1214384 C115.186621,14.8485949 115.393025,14.5393639 115.536836,14.1937706 Z" id="Shape"></path>
            </g>
        </g>
    </g>
</svg>