<?xml version="1.0" encoding="UTF-8"?>
<svg width="26px" height="26px" viewBox="0 0 26 26" version="1.1" xmlns="http://www.w3.org/2000/svg" xmlns:xlink="http://www.w3.org/1999/xlink">
    <title>noun_Organizations_3858305</title>
    <g id="Page-1" stroke="none" stroke-width="1" fill="none" fill-rule="evenodd">
        <g id="add-organization" transform="translate(-919.000000, -273.000000)" fill="#FFFFFF" fill-rule="nonzero">
            <g id="Rectangle-2" transform="translate(872.000000, 225.000000)">
                <g id="Group" transform="translate(24.000000, 25.000000)">
                    <g id="noun_Organizations_3858305" transform="translate(23.000000, 23.000000)">
                        <path d="M22.951344,21.431228 C23.4766648,20.9064528 23.7713272,20.1940495 23.7701855,19.4515203 C23.7690438,18.7089911 23.4721921,17.9974973 22.94526,17.47434 L22.768304,17.297124 C22.831276,17.154904 22.8906773,17.0118693 22.946508,16.86802 L23.203752,16.86802 C24.7468483,16.86672 25.997724,15.6166351 26,14.07354 L26,11.92646 C25.997724,10.3833649 24.7468483,9.13328002 23.203752,9.13198 L22.947808,9.13198 C22.89144,8.987264 22.8319347,8.8439 22.769292,8.701888 L22.953112,8.517548 C23.4775684,7.9926479 23.7715582,7.28060233 23.7701825,6.53859642 C23.7688069,5.79659051 23.4721791,5.0856399 22.94578,4.562688 L21.433516,3.048656 C20.3407769,1.95627332 18.5695107,1.95615693 17.476628,3.048396 L17.295356,3.229668 C17.154436,3.167736 17.0122333,3.10875067 16.868748,3.052712 L16.868748,2.796248 C16.8668161,1.25241931 15.6155492,0.00150129096 14.07172,0 L11.925732,0 C10.3818215,0.00140663569 9.13042475,1.25233809 9.128444,2.796248 L9.128444,3.053232 C8.985236,3.10908 8.843224,3.16806533 8.702408,3.230188 L8.521084,3.048396 C7.43069696,1.95804622 5.6635021,1.95599921 4.570592,3.04382 L3.046888,4.567264 C2.52262488,5.09164286 2.22816712,5.80282294 2.22830365,6.54432479 C2.22844018,7.28582664 2.52315981,7.99689823 3.047616,8.521084 L3.2292,8.702876 C3.166956,8.845096 3.107572,8.987784 3.051464,9.13198 L2.79552,9.13198 C1.25263571,9.13350674 0.00210083427,10.3835764 0,11.92646 L0,14.07354 C0.00210083427,15.6164236 1.25263571,16.8664933 2.79552,16.86802 L3.051724,16.86802 C3.107832,17.012216 3.16706,17.1552507 3.229408,17.297124 L3.04512,17.481932 C2.52150717,18.0064134 2.22768967,18.7174179 2.22830404,19.4585325 C2.22891841,20.199647 2.52391432,20.9101634 3.048396,21.433776 L4.566484,22.952124 C5.65738014,24.0423911 7.42498864,24.0437404 8.517548,22.95514 L8.702616,22.769812 C8.843276,22.831744 8.98521867,22.8906427 9.128444,22.946508 L9.128444,23.20552 C9.13102407,24.7488949 10.3823553,25.99897 11.925732,26 L14.07172,26 C15.6150213,25.9988896 16.8662311,24.7488196 16.868748,23.20552 L16.868748,22.947028 C17.012476,22.89118 17.154592,22.8322813 17.295096,22.770332 L17.477408,22.952592 C18.5691313,24.042417 20.3368005,24.0435566 21.429928,22.95514 L22.951344,21.431228 Z M19.454552,21.690708 C19.2646234,21.6909753 19.0823865,21.6156934 18.94802,21.48146 L18.18908,20.722832 C17.8772088,20.4395695 17.4213554,20.3819044 17.048772,20.578584 C16.5532319,20.8438085 16.0329612,21.0599769 15.495376,21.224008 C15.0930006,21.3501427 14.811292,21.7129288 14.788748,22.134008 L14.788748,23.20552 C14.7884642,23.3953664 14.7127479,23.5773185 14.5782673,23.7113212 C14.4437867,23.8453239 14.2615663,23.920392 14.07172,23.9200016 L11.925732,23.9200016 C11.7358588,23.9204017 11.553606,23.845345 11.419082,23.7113477 C11.284558,23.5773503 11.208787,23.3953933 11.208444,23.20552 L11.208444,22.134008 C11.1866881,21.7132858 10.9057185,21.3504098 10.503844,21.224008 C9.96592732,21.0599709 9.44531212,20.843804 8.949408,20.578584 C8.80429816,20.5029547 8.64285488,20.4640669 8.479224,20.465328 C8.23032248,20.4602345 7.98929128,20.552646 7.807592,20.722832 L7.049432,21.48146 C6.76813722,21.7564641 6.31870278,21.7564641 6.037408,21.48146 L4.51776,19.961604 C4.38364269,19.8275565 4.30829051,19.6457072 4.30829051,19.456086 C4.30829051,19.2664648 4.38364269,19.0846155 4.51776,18.950568 L5.27644,18.18986 C5.55713564,17.8764291 5.61418648,17.4218454 5.419648,17.048772 C5.15461589,16.5525909 4.93885896,16.0316253 4.775472,15.493348 C4.6488232,15.0918584 4.28662235,14.8108808 3.866252,14.78802 L2.79552,14.78802 C2.60579011,14.7884859 2.42368176,14.7133935 2.28942453,14.5793314 C2.1551673,14.4452693 2.07999964,14.2632704 2.07999964,14.07354 L2.07999964,11.92646 C2.07999964,11.7367296 2.1551673,11.5547307 2.28942453,11.4206686 C2.42368176,11.2866065 2.60579011,11.2115141 2.79552,11.21198 L3.866252,11.21198 C4.28662235,11.1891192 4.6488232,10.9081416 4.775472,10.506652 C4.93876509,9.96834112 5.15452576,9.44736653 5.419648,8.951228 C5.61418648,8.57815464 5.55713564,8.12357087 5.27644,7.81014 L4.51776,7.049432 C4.38364091,6.91533266 4.30829193,6.73344307 4.30829193,6.543784 C4.30829193,6.35412493 4.38364091,6.17223534 4.51776,6.038136 L6.037408,4.51854 C6.31850172,4.24304302 6.76833828,4.24304302 7.049432,4.51854 L7.807592,5.277428 C8.11984247,5.56035552 8.57566302,5.61788627 8.94842,5.421416 C9.44444243,5.15651453 9.96503455,4.94044433 10.502856,4.776252 C10.9045818,4.64941632 11.1856601,4.28690841 11.208444,3.866252 L11.208444,2.796248 C11.2090321,2.40051293 11.5299965,2.08 11.925732,2.08 L14.07172,2.08 C14.4674074,2.08 14.7882889,2.40056091 14.788748,2.796248 L14.788748,3.866252 C14.8116352,4.28688655 15.0927,4.64935038 15.494388,4.776252 C16.0323884,4.93989925 16.5530155,5.15599118 17.048772,5.421416 C17.4213271,5.6180289 17.8770926,5.56047886 18.18908,5.277428 L18.94802,4.51854 C19.2297639,4.24290216 19.6801201,4.24290216 19.961864,4.51854 L21.479692,6.038136 C21.6145035,6.17186673 21.6903313,6.35389442 21.6903313,6.543784 C21.6903313,6.73367358 21.6145035,6.91570127 21.479692,7.049432 L20.721792,7.81014 C20.4405964,8.12329098 20.3832325,8.57805756 20.577856,8.951228 C20.8446916,9.44664498 21.0607581,9.96776927 21.22276,10.506652 C21.3489592,10.9080419 21.7108539,11.1890874 22.130992,11.21198 L23.203752,11.21198 C23.3935011,11.2116708 23.5755932,11.2867905 23.709932,11.4207976 C23.8442708,11.5548048 23.92,11.7367107 23.92,11.92646 L23.92,14.07354 C23.92,14.2633433 23.8445027,14.4453514 23.7101258,14.5793966 C23.5757488,14.7134418 23.3935547,14.7885049 23.203752,14.78802 L22.130992,14.78802 C21.7101332,14.8111903 21.3478423,15.0931103 21.22198,15.495376 C21.0588678,16.0330932 20.8431153,16.5534107 20.577856,17.048772 C20.3832325,17.4219424 20.4405964,17.876709 20.721792,18.18986 L21.479692,18.950568 C21.6145008,19.0842473 21.6903313,19.2662346 21.6903313,19.456086 C21.6903313,19.6459374 21.6145008,19.8279247 21.479692,19.961604 L19.961864,21.48146 C19.8271348,21.6156273 19.6446909,21.6908789 19.454552,21.690708 L19.454552,21.690708 Z" id="Shape"></path>
                        <path d="M17.6800001,13.00104 C17.6804206,11.1079012 16.5402505,9.40097248 14.7912706,8.6763734 C13.0422907,7.95177431 11.0290301,8.35224264 9.69048293,9.69099807 C8.35193579,11.0297535 7.95178073,13.0430765 8.67665195,14.7919436 C9.40152318,16.5408107 11.1086293,17.6807151 13.001768,17.6800003 C15.5842704,17.6763873 17.6767892,15.583543 17.6800001,13.00104 Z M10.3999998,13.00104 C10.399426,11.5651946 11.5628722,10.4007091 12.9987175,10.4000006 C14.4345628,10.3992928 15.599157,11.5626301 15.5999998,12.9984753 C15.6008417,14.4343206 14.4376131,15.5990235 13.001768,15.6 C11.5665586,15.5985246 10.4030252,14.436247 10.3999998,13.00104 L10.3999998,13.00104 Z" id="Shape"></path>
                    </g>
                </g>
            </g>
        </g>
    </g>
</svg>