<svg width="223" height="201" viewBox="0 0 223 201" fill="none" xmlns="http://www.w3.org/2000/svg">
<path d="M2 47.5832C2 50.472 3.14756 53.2424 5.19022 55.2851C7.23288 57.3278 10.0033 58.4753 12.8921 58.4753H49.0539C52.6168 58.4565 56.0316 57.0472 58.5708 54.5477C61.1101 52.0483 62.573 48.6561 62.6481 45.0939C62.7232 41.5317 61.4044 38.0809 58.9727 35.4767C56.541 32.8725 53.1886 31.3206 49.6296 31.1517C47.8743 27.3709 44.94 24.2615 41.2671 22.2902C37.5943 20.3189 33.3811 19.5922 29.2601 20.2191C25.1392 20.8461 21.3327 22.7928 18.4122 25.7671C15.4917 28.7414 13.6148 32.5827 13.0633 36.7145H12.8999C10.0138 36.7124 7.24489 37.8558 5.20121 39.8937C3.15754 41.9315 2.00618 44.6972 2 47.5832V47.5832Z" fill="url(#paint0_linear_5_890)"/>
<path d="M41 127.309C40.997 133.535 43.2476 139.551 47.3326 144.234C51.4176 148.917 57.0583 151.949 63.2038 152.764C64.3215 152.92 65.4487 152.999 66.5772 153H151.604C153.457 152.997 155.306 152.844 157.134 152.542C164.995 151.227 172.09 147.027 177.042 140.755C181.993 134.483 184.449 126.587 183.932 118.599C183.416 110.611 179.963 103.101 174.245 97.5257C168.527 91.9502 160.951 88.7071 152.986 88.4255C148.874 79.4722 141.975 72.1041 133.331 67.4313C124.687 62.7585 114.764 61.0341 105.059 62.518C95.3545 64.0019 86.3926 68.6137 79.5241 75.6585C72.6555 82.7033 68.2524 91.7995 66.9781 101.576H66.5772C63.2149 101.576 59.8855 102.242 56.7796 103.536C53.6738 104.83 50.8523 106.726 48.4767 109.116C46.1011 111.506 44.218 114.343 42.9351 117.465C41.6521 120.587 40.9946 123.932 41 127.309V127.309Z" fill="url(#paint1_linear_5_890)"/>
<path d="M205.631 47.5587C205.316 46.324 206.456 45.2115 207.683 45.5563L215.963 47.8831C217.19 48.2278 217.583 49.7712 216.671 50.6612L210.516 56.6686C209.604 57.5586 208.071 57.1277 207.756 55.893L205.631 47.5587Z" fill="#3EA4F4"/>
<path d="M7.34211 87.0458C7.0273 85.8111 8.16715 84.6986 9.39385 85.0434L17.674 87.3702C18.9007 87.7149 19.2942 89.2583 18.3823 90.1483L12.2271 96.1557C11.3153 97.0457 9.78189 96.6148 9.46708 95.3801L7.34211 87.0458Z" fill="#3EA4F4"/>
<path d="M144.932 7.99867C145.421 5.97173 148.304 5.97173 148.794 7.99866L150.441 14.8206C150.615 15.5449 151.181 16.1105 151.905 16.2853L158.727 17.9321C160.754 18.4214 160.754 21.3045 158.727 21.7938L151.905 23.4406C151.181 23.6154 150.615 24.181 150.441 24.9053L148.794 31.7272C148.304 33.7542 145.421 33.7542 144.932 31.7272L143.285 24.9053C143.11 24.181 142.545 23.6154 141.821 23.4406L134.999 21.7938C132.972 21.3045 132.972 18.4214 134.999 17.9321L141.821 16.2853C142.545 16.1105 143.11 15.5449 143.285 14.8206L144.932 7.99867Z" fill="#3EA4F4"/>
<path d="M157.345 194.793C157.345 197.307 155.307 199.345 152.793 199.345C150.279 199.345 148.241 197.307 148.241 194.793C148.241 192.279 150.279 190.241 152.793 190.241C155.307 190.241 157.345 192.279 157.345 194.793Z" fill="#3EA4F4" stroke="#3EA4F4" stroke-width="2.48287"/>
<path d="M33.9321 168.999C34.4214 166.972 37.3045 166.972 37.7938 168.999L39.4406 175.821C39.6154 176.545 40.181 177.11 40.9053 177.285L47.7272 178.932C49.7542 179.421 49.7542 182.304 47.7272 182.794L40.9053 184.441C40.181 184.615 39.6154 185.181 39.4406 185.905L37.7938 192.727C37.3045 194.754 34.4214 194.754 33.9321 192.727L32.2853 185.905C32.1105 185.181 31.5449 184.615 30.8206 184.441L23.9987 182.794C21.9717 182.304 21.9717 179.421 23.9987 178.932L30.8206 177.285C31.5449 177.11 32.1105 176.545 32.2853 175.821L33.9321 168.999Z" fill="#3EA4F4"/>
<circle cx="205.134" cy="140.559" r="4.55192" stroke="#3EA4F4" stroke-width="2.48287"/>
<defs>
<linearGradient id="paint0_linear_5_890" x1="51.1413" y1="75.069" x2="20.9569" y2="20.0084" gradientUnits="userSpaceOnUse">
<stop stop-color="#3EA4F4"/>
<stop offset="1" stop-color="#3EA4F4" stop-opacity="0.23"/>
</linearGradient>
<linearGradient id="paint1_linear_5_890" x1="156.863" y1="192.246" x2="85.3518" y2="62.209" gradientUnits="userSpaceOnUse">
<stop stop-color="#3EA4F4"/>
<stop offset="1" stop-color="#3EA4F4" stop-opacity="0.23"/>
</linearGradient>
</defs>
</svg>
