<svg width="254" height="233" viewBox="0 0 254 233" fill="none" xmlns="http://www.w3.org/2000/svg">
<path d="M132.324 28.0344C157.257 32.0812 174.188 55.572 170.141 80.5024C166.096 105.435 142.605 122.366 117.673 118.32C92.7404 114.274 75.8092 90.7836 79.856 65.8516C83.9012 40.9204 107.392 23.9876 132.324 28.0344" fill="url(#paint0_linear_5_890)"/>
<path d="M208.44 218.468C208.434 220.61 207.579 222.665 206.063 224.18C204.548 225.696 202.493 226.551 200.351 226.557H49.6471C47.5049 226.551 45.4503 225.696 43.9347 224.18C42.419 222.665 41.5643 220.61 41.5581 218.468C41.5581 196.338 50.3501 175.116 65.9973 159.468C81.6457 143.82 102.869 135.029 124.997 135.029C147.125 135.029 168.349 143.82 183.997 159.468C199.644 175.116 208.436 196.34 208.436 218.468H208.44Z" fill="url(#paint1_linear_5_890)"/>
<path d="M254 75.6249C254.004 79.1277 252.734 82.5123 250.426 85.1476C248.118 87.783 244.931 89.4891 241.459 89.948C240.824 90.0289 240.185 90.0705 239.545 90.0725H191.487C190.445 90.0702 189.404 89.9843 188.375 89.8157C183.958 89.0535 179.978 86.6842 177.203 83.1639C174.428 79.6437 173.052 75.2212 173.342 70.7479C173.632 66.2745 175.566 62.0664 178.772 58.9335C181.979 55.8007 186.23 53.9645 190.709 53.7784C193.031 48.738 196.928 44.5891 201.814 41.9575C206.699 39.326 212.308 38.3545 217.794 39.1897C223.28 40.0248 228.346 42.6213 232.227 46.5875C236.109 50.5537 238.595 55.6744 239.311 61.1773H239.529C241.428 61.1742 243.31 61.5457 245.065 62.2703C246.821 62.995 248.416 64.0587 249.76 65.4006C251.104 66.7425 252.171 68.3362 252.898 70.0906C253.626 71.845 254 73.7256 254 75.6249Z" fill="url(#paint2_linear_5_890)"/>
<path d="M9.625 47.3281C9.625 50.2169 10.7726 52.9873 12.8152 55.03C14.8579 57.0726 17.6283 58.2202 20.5171 58.2202H56.6789C60.2418 58.2013 63.6566 56.7921 66.1959 54.2926C68.7351 51.7931 70.198 48.401 70.2731 44.8388C70.3482 41.2765 69.0294 37.8258 66.5977 35.2216C64.166 32.6174 60.8136 31.0655 57.2546 30.8966C55.4993 27.1158 52.565 24.0063 48.8921 22.0351C45.2193 20.0638 41.0061 19.3371 36.8851 19.964C32.7642 20.5909 28.9577 22.5377 26.0372 25.5119C23.1167 28.4862 21.2398 32.3276 20.6883 36.4593H20.5249C17.6388 36.4573 14.8699 37.6007 12.8262 39.6386C10.7825 41.6764 9.63118 44.442 9.625 47.3281Z" fill="url(#paint3_linear_5_890)"/>
<path d="M1.89262e-05 186.589C-0.00170582 190.077 1.26481 193.447 3.56358 196.071C5.86235 198.694 9.03657 200.393 12.4948 200.85C13.1238 200.937 13.7581 200.981 14.3931 200.982H62.2406C63.2831 200.98 64.3239 200.895 65.3526 200.725C69.7763 199.989 73.7687 197.635 76.5552 194.122C79.3417 190.608 80.7236 186.184 80.4328 181.709C80.1421 177.234 78.1993 173.027 74.9815 169.903C71.7637 166.779 67.5003 164.962 63.0186 164.805C60.7041 159.789 56.8222 155.661 51.9577 153.043C47.0932 150.425 41.5097 149.459 36.0484 150.29C30.5871 151.122 25.544 153.705 21.6788 157.652C17.8136 161.599 15.3358 166.695 14.6188 172.172H14.3931C12.501 172.172 10.6275 172.545 8.87974 173.27C7.13196 173.995 5.54424 175.057 4.20741 176.396C2.87058 177.735 1.81087 179.325 1.08892 181.074C0.366976 182.823 -0.00304934 184.697 1.89262e-05 186.589Z" fill="url(#paint4_linear_5_890)"/>
<path d="M215.523 107.046C215.208 105.811 216.348 104.699 217.575 105.043L225.855 107.37C227.082 107.715 227.475 109.258 226.563 110.148L220.408 116.156C219.496 117.046 217.963 116.615 217.648 115.38L215.523 107.046Z" fill="#3EA4F4"/>
<path d="M24.3421 107.046C24.0273 105.811 25.1672 104.699 26.3938 105.043L34.674 107.37C35.9007 107.715 36.2942 109.258 35.3823 110.148L29.2271 116.156C28.3153 117.046 26.7819 116.615 26.4671 115.38L24.3421 107.046Z" fill="#3EA4F4"/>
<path d="M88.6108 7.99867C89.1001 5.97173 91.9832 5.97173 92.4725 7.99866L94.1193 14.8206C94.2941 15.5449 94.8597 16.1105 95.584 16.2853L102.406 17.9321C104.433 18.4214 104.433 21.3045 102.406 21.7938L95.584 23.4406C94.8597 23.6154 94.2941 24.181 94.1193 24.9053L92.4725 31.7272C91.9832 33.7542 89.1001 33.7542 88.6108 31.7272L86.964 24.9053C86.7892 24.181 86.2236 23.6154 85.4993 23.4406L78.6774 21.7938C76.6504 21.3045 76.6504 18.4214 78.6774 17.9321L85.4993 16.2853C86.2236 16.1105 86.7892 15.5449 86.964 14.8206L88.6108 7.99867Z" fill="#3EA4F4"/>
<path d="M133.164 226.768C133.164 229.282 131.126 231.32 128.612 231.32C126.098 231.32 124.061 229.282 124.061 226.768C124.061 224.254 126.098 222.217 128.612 222.217C131.126 222.217 133.164 224.254 133.164 226.768Z" fill="#3EA4F4" stroke="#3EA4F4" stroke-width="2.48287"/>
<path d="M214.41 189.248C214.899 187.221 217.782 187.221 218.271 189.248L219.918 196.07C220.093 196.794 220.658 197.36 221.383 197.535L228.205 199.182C230.232 199.671 230.232 202.554 228.205 203.043L221.383 204.69C220.658 204.865 220.093 205.43 219.918 206.155L218.271 212.977C217.782 215.004 214.899 215.004 214.41 212.977L212.763 206.155C212.588 205.43 212.022 204.865 211.298 204.69L204.476 203.043C202.449 202.554 202.449 199.671 204.476 199.182L211.298 197.535C212.022 197.36 212.588 196.794 212.763 196.07L214.41 189.248Z" fill="#3EA4F4"/>
<circle cx="222.134" cy="160.559" r="4.55192" stroke="#3EA4F4" stroke-width="2.48287"/>
<defs>
<linearGradient id="paint0_linear_5_890" x1="192.995" y1="123.629" x2="115.076" y2="26.8115" gradientUnits="userSpaceOnUse">
<stop stop-color="#3EA4F4"/>
<stop offset="1" stop-color="#3EA4F4" stop-opacity="0.15"/>
</linearGradient>
<linearGradient id="paint1_linear_5_890" x1="249.041" y1="231.271" x2="190.076" y2="97.6875" gradientUnits="userSpaceOnUse">
<stop stop-color="#3EA4F4"/>
<stop offset="1" stop-color="#3EA4F4" stop-opacity="0.15"/>
</linearGradient>
<linearGradient id="paint2_linear_5_890" x1="238.686" y1="112.143" x2="198.547" y2="38.8983" gradientUnits="userSpaceOnUse">
<stop stop-color="#3EA4F4"/>
<stop offset="1" stop-color="#3EA4F4" stop-opacity="0.23"/>
</linearGradient>
<linearGradient id="paint3_linear_5_890" x1="58.7663" y1="74.8138" x2="28.5819" y2="19.7533" gradientUnits="userSpaceOnUse">
<stop stop-color="#3EA4F4"/>
<stop offset="1" stop-color="#3EA4F4" stop-opacity="0.23"/>
</linearGradient>
<linearGradient id="paint4_linear_5_890" x1="65.1999" y1="222.969" x2="25.2319" y2="149.967" gradientUnits="userSpaceOnUse">
<stop stop-color="#3EA4F4"/>
<stop offset="1" stop-color="#3EA4F4" stop-opacity="0.23"/>
</linearGradient>
</defs>
</svg>
