<?xml version="1.0" encoding="UTF-8"?>
<svg width="32px" height="35px" viewBox="0 0 32 35" version="1.1" xmlns="http://www.w3.org/2000/svg" xmlns:xlink="http://www.w3.org/1999/xlink">
    <title>noun-keys-1183246</title>
    <g id="Page-1" stroke="none" stroke-width="1" fill="none" fill-rule="evenodd">
        <g id="register" transform="translate(-1017.000000, -268.000000)" fill-rule="nonzero">
            <g id="Rectangle-2" transform="translate(872.000000, 225.000000)">
                <g id="Group" transform="translate(24.000000, 25.000000)">
                    <g id="Group-5-Copy" transform="translate(101.000000, 0.000000)">
                        <g id="noun-keys-1183246" transform="translate(20.000000, 18.000000)">
                            <path d="M7.56258869,24.406876 L8.11477156,25.6460285 C8.26909547,25.9909941 8.55363216,26.2607333 8.90579451,26.3957432 L9.88194508,26.7529129 L9.58622439,27.5671548 C9.43562848,27.9609368 9.4475568,28.3988038 9.61927571,28.7838631 C9.79099271,29.1689287 10.1085852,29.4698157 10.5019718,29.6202304 L11.2964301,29.9238464 L10.940069,30.898705 L10.940069,30.898456 C10.8046332,31.2521379 10.8148184,31.6451739 10.9686474,31.991147 L11.4388206,33.0624139 C11.5819605,33.390438 11.8500966,33.6474821 12.183339,33.7764856 L15.2079171,34.9368919 C15.5021491,35.0365202 15.8232215,35.0175892 16.1037821,34.8843379 C16.384349,34.7510879 16.6020362,34.5139694 16.7113824,34.2228062 L17.872915,31.191365 C17.9986618,30.8581061 17.9884703,30.4885155 17.8443367,30.1629462 L14.0111135,21.5219074 C14.2233359,21.2641172 14.4196602,20.993377 14.5988332,20.7111724 C14.8595196,20.293231 14.7327804,19.7425624 14.3155371,19.4812654 C13.8985419,19.2199874 13.34912,19.3470143 13.0881601,19.7649557 C12.8662423,20.121373 12.6082915,20.4539051 12.3187672,20.7577315 C12.0677761,21.0197554 12.0001823,21.407786 12.1477945,21.7395402 L16.1519585,30.7089538 L15.2648092,33.0228164 L12.9564396,32.1373522 L12.621454,31.3873824 L13.1877982,29.9056789 L13.1880467,29.9056789 C13.2956497,29.6324456 13.2894406,29.3275863 13.1708998,29.0591096 C13.0523609,28.7906138 12.8314419,28.5811426 12.5573385,28.4772805 L11.3033693,27.9953284 L11.7879583,26.7813619 C11.8955614,26.5081286 11.8893523,26.2032692 11.7708114,25.9347926 C11.6522725,25.6662968 11.4313536,25.4568255 11.1572502,25.3529635 L9.67890118,24.7815977 L8.96644614,23.1534327 C8.82081877,22.8194277 8.485337,22.6094655 8.12204791,22.6249023 C5.95484606,22.7001225 3.90959941,21.6198842 2.74584014,19.7857676 C1.58233534,17.9515873 1.47399433,15.6372783 2.46104897,13.7019713 C2.68445538,13.2601191 2.50826542,12.7206089 2.06741422,12.4967402 C1.6268105,12.2730755 1.08827362,12.4496659 0.865166218,12.8915168 C-0.358966289,15.2927973 -0.279698587,18.153356 1.07515565,20.4830316 C2.43027707,22.8125797 4.87485226,24.2913501 7.56289252,24.406887 L7.56258869,24.406876 Z" id="Path" fill="#3EA4F4"></path>
                            <path d="M7.67328355,16.4869864 C9.07732702,17.4068183 10.710776,17.9136632 12.387676,17.9495613 C14.0648304,17.9856768 15.7183826,17.5493075 17.1604695,16.690515 L18.5320043,17.5903894 C18.8540691,17.8038458 19.2462407,17.8830447 19.6256569,17.811816 L19.6611931,17.811816 L20.9651022,17.5403298 L21.1932291,18.6330208 C21.2849277,19.0723799 21.5468546,19.4574646 21.9215886,19.7030125 C22.2965833,19.9488472 22.7533269,20.0352703 23.1917167,19.9433637 L24.2819339,19.7147192 L24.5490775,21.0111301 C24.6300883,21.4016729 24.8619495,21.7443941 25.1939705,21.9643096 L26.3018097,22.6783813 L26.3020582,22.6786303 C26.5304332,22.8293193 26.7978313,22.9100166 27.0714512,22.9105322 C27.1683664,22.9110121 27.2650399,22.9012984 27.3602184,22.88212 L31.0117493,22.1394192 C31.3343103,22.0716719 31.6168622,21.8781412 31.7973012,21.6016752 C31.9777147,21.3249604 32.0410843,20.987965 31.9737386,20.6646912 L31.214779,17.0048746 C31.1384886,16.6377452 30.9193064,16.3164353 30.60569,16.1122053 L21.4638211,10.106135 C21.7334522,7.97679988 21.2327106,5.82113104 20.0525253,4.0297988 C18.8720981,2.23872161 17.0908015,0.930642278 15.0309228,0.343074592 C12.971044,-0.24473539 10.7692978,-0.0731197168 8.82469437,0.82651878 C6.88040907,1.72613815 5.32196535,3.29430306 4.43208044,5.24676211 C3.54219553,7.19922115 3.37990668,9.40672857 3.97433173,11.4687947 C4.56901126,13.5311158 5.88114618,15.3114809 7.67313061,16.4870627 L7.67328355,16.4869864 Z M6.57587758,5.03914024 C7.7982924,3.16090027 9.82508991,1.96236421 12.0564184,1.79773048 C14.287747,1.63334543 16.4676724,2.5220041 17.9509835,4.20079624 C19.4342947,5.87958838 20.0511323,8.15576757 19.618468,10.3558148 C19.548883,10.7117348 19.7009739,11.0744136 20.0034063,11.2734151 L29.5047154,17.5221002 L30.1244921,20.4964743 L27.1568519,21.1176574 L26.2733923,20.5393161 L25.8921821,18.7004173 C25.8322918,18.4045229 25.6563512,18.1452408 25.4038651,17.980607 C25.1511309,17.8159733 24.8432338,17.7601815 24.5489699,17.8256843 L22.9066144,18.182854 L22.5502533,16.5367718 L22.5505018,16.5367718 C22.4896177,16.2443653 22.3154152,15.9883158 22.0661609,15.8249318 C21.8169066,15.6615415 21.5132337,15.6042576 21.2217627,15.6655266 L19.4084027,16.0331533 L17.6519805,14.8796971 L17.6519805,14.8799461 C17.3515331,14.6774505 16.95842,14.6774505 16.6579534,14.8799461 C14.8190191,16.1516811 12.4937271,16.4921706 10.3682585,15.8009895 C8.24304439,15.1095534 6.56041885,13.4654478 5.81685473,11.3535836 C5.07354509,9.24171929 5.35413748,6.90343582 6.57581434,5.02844772 L6.57587758,5.03914024 Z" id="Shape" fill="#FFFFFF"></path>
                            <path d="M9.1339468,10.0387259 C9.58523831,10.3376108 10.1142961,10.4965186 10.6550469,10.4957752 C10.8466445,10.4950254 11.0374977,10.474851 11.2251191,10.4349997 C12.0688175,10.2591566 12.7827358,9.70001405 13.1569989,8.92192523 C13.5312494,8.14409146 13.5232971,7.23599173 13.1353791,6.46485298 C12.7474572,5.69371423 12.0235319,5.14701805 11.1771615,4.98614629 C10.330473,4.82524902 9.45725596,5.06783828 8.81458958,5.64321465 C8.17173234,6.21831685 7.83226809,7.06045469 7.89633116,7.92168928 C7.960197,8.78298763 8.42018505,9.56528475 9.14082134,10.0387821 L9.1339468,10.0387259 Z M9.82502629,7.18212042 C9.96841431,6.96094247 10.1940601,6.8067721 10.4520109,6.75371567 C10.5188604,6.73976771 10.5867024,6.73254474 10.6550405,6.73229543 C10.8945995,6.73229543 11.1259581,6.81947096 11.3063589,6.97738416 C11.4867725,7.13529736 11.6038228,7.35347849 11.6361279,7.59134298 C11.6681855,7.82920747 11.6132649,8.07080204 11.4815558,8.27130194 C11.2760387,8.53133013 10.9544702,8.67105838 10.6244341,8.64391485 C10.294417,8.6170149 9.9999369,8.42647337 9.83939117,8.13631121 C9.67861007,7.84639135 9.67338705,7.49492832 9.82497794,7.20002864 L9.82502629,7.18212042 Z" id="Shape" fill="#FFFFFF"></path>
                        </g>
                    </g>
                </g>
            </g>
        </g>
    </g>
</svg>