<?xml version="1.0" encoding="UTF-8"?>
<svg width="42px" height="30px" viewBox="0 0 42 30" version="1.1" xmlns="http://www.w3.org/2000/svg" xmlns:xlink="http://www.w3.org/1999/xlink">
    <title>noun-pass-4312944</title>
    <g id="Page-1" stroke="none" stroke-width="1" fill="none" fill-rule="evenodd">
        <g id="register" transform="translate(-911.000000, -271.000000)" fill-rule="nonzero">
            <g id="Rectangle-2" transform="translate(872.000000, 225.000000)">
                <g id="Group" transform="translate(24.000000, 25.000000)">
                    <g id="noun-pass-4312944" transform="translate(36.000000, 36.000000) rotate(-9.000000) translate(-36.000000, -36.000000) translate(17.000000, 24.000000)">
                        <path d="M33.9143887,-1.13686838e-13 L4.08583747,-1.13686838e-13 C1.83274967,-1.13686838e-13 4.54747351e-13,1.76185745 4.54747351e-13,3.92765942 L4.54747351e-13,20.0729293 C4.54747351e-13,22.2390256 1.83282507,24 4.08583747,24 L33.9143887,24 C36.1668733,24 38,22.2389521 38,20.0729293 L38,3.92765942 C38,1.76185745 36.1668804,-1.13686838e-13 33.9140942,-1.13686838e-13 L33.9143887,-1.13686838e-13 Z M35.7648567,20.0721198 C35.7648567,21.0365382 34.9360931,21.8170512 33.9146903,21.8170512 L4.08613906,21.8170512 C3.06443465,21.8170512 2.23537653,21.0360231 2.23537653,20.0721198 L2.23537653,3.92758583 C2.23537653,2.96316738 3.06414008,2.18236008 4.08584448,2.18236008 L33.9143957,2.18236008 C34.9357986,2.18236008 35.7648567,2.96368253 35.7648567,3.92758583 L35.7648567,20.0721198 Z" id="Shape" fill="#FFFFFF"></path>
                        <path d="M13.9333333,8.48275862 C13.9333333,6.77135974 12.5132581,5.37931034 10.7666667,5.37931034 C9.0203751,5.37931034 7.6,6.77106595 7.6,8.48275862 C7.60029279,10.1938637 9.0203751,11.5862069 10.7666667,11.5862069 C12.5132581,11.5862069 13.9333333,10.1938637 13.9333333,8.48275862 Z" id="Path" fill="#3EA4F4"></path>
                        <path d="M5.06666667,16.9387538 L5.06666667,14.6167941 L5.06666667,14.6167941 C5.06666667,13.3996777 6.10133253,12.4137931 7.37680551,12.4137931 L14.1565278,12.4137931 C15.4323045,12.4137931 16.4666667,13.3998949 16.4666667,14.6167941 L16.4666667,16.9387538 C16.4666667,17.6391297 15.8988998,18.2068966 15.1985239,18.2068966 L6.33480944,18.2068966 C5.63443353,18.2068966 5.06666667,17.6391297 5.06666667,16.9387538 Z" id="Path" fill="#3EA4F4"></path>
                        <path d="M32.3458383,6.62068966 L19.5859826,6.62068966 C19.0294432,6.62068966 18.5777778,7.08355477 18.5777778,7.65517241 C18.5777778,8.22617743 19.0291559,8.68965517 19.5859826,8.68965517 L32.3458383,8.68965517 C32.9032624,8.68965517 33.3555556,8.22618518 33.3555556,7.65517241 C33.3552602,7.0841674 32.9035876,6.62068966 32.3453089,6.62068966 L32.3458383,6.62068966 Z" id="Path" fill="#FFFFFF"></path>
                        <path d="M32.3458383,10.7586207 L19.5859826,10.7586207 C19.0294432,10.7586207 18.5777778,11.2214164 18.5777778,11.7929484 C18.5777778,12.3635654 19.0291559,12.8275862 19.5859826,12.8275862 L32.3458383,12.8275862 C32.9032624,12.8275862 33.3555556,12.3647905 33.3555556,11.7929484 C33.3549648,11.2214242 32.9035876,10.7586207 32.3453089,10.7586207 L32.3458383,10.7586207 Z" id="Path" fill="#FFFFFF"></path>
                        <path d="M26.4189821,14.8965517 L19.6023178,14.8965517 C19.0367612,14.8965517 18.5777778,15.3592088 18.5777778,15.9305694 C18.5777778,16.5019301 19.0364692,16.9655172 19.6023178,16.9655172 L26.4189821,16.9655172 C26.9848384,16.9655172 27.4444444,16.5019533 27.4444444,15.9305694 C27.4447445,15.3592165 26.9860603,14.8965517 26.4189821,14.8965517 Z" id="Path" fill="#FFFFFF"></path>
                    </g>
                </g>
            </g>
        </g>
    </g>
</svg>